<svg version="1.2" xmlns="http://www.w3.org/2000/svg" viewBox="0 0 656 501" width="656" height="501"><style>.a{fill:#e77d7d}</style><path class="a" d="m331.8 0.6c35.6 0.4 39.3 0.6 51.5 3.1 7.3 1.5 16.9 3.8 21.4 5.1 4.5 1.3 15.8 4.9 25.2 8 9.3 3 23.1 7.9 30.7 10.7 7.5 2.9 21.3 8.5 30.7 12.4 9.3 3.9 24.1 10.1 32.8 13.9 8.8 3.7 19.4 8.8 23.6 11.2 4.2 2.5 12.1 7 17.5 10.2 5.5 3.2 13.8 8.7 18.7 12.3 4.8 3.6 14.2 12.2 20.8 19.1 6.8 7 15.1 16.9 19 22.8 3.8 5.7 9.3 15.4 12.1 21.4 2.9 6 7.1 16.4 9.3 23 2.1 6.6 5.2 17.5 6.8 24.1 2.8 11.8 2.9 12.9 3.4 60.8 0.5 42.2 0.3 50.5-1.3 61.4-1 6.9-3.8 19-6.2 26.8-2.5 7.9-6 17.7-8 22-1.9 4.2-5.8 11.1-8.5 15.3-2.8 4.2-9.7 12.8-15.3 19.1-5.6 6.3-17.6 17.9-26.7 25.7-9.6 8.3-23.9 19.1-34.5 26.2-9.9 6.6-23.7 14.8-30.7 18.3-6.9 3.5-16.8 8.1-21.9 10.2-5.1 2.2-12.5 5.2-16.4 6.7-3.9 1.5-13.1 4.3-33.4 10h-81.1l-9.9-3.2c-5.4-1.7-17.9-6.2-27.7-10.1-9.8-3.9-21.4-8-25.7-9.2-4.4-1.2-9.7-2.7-11.8-3.5-2.7-0.9-22.2-1.5-67.9-2-60.4-0.7-64.7-0.9-72.9-3.1-4.8-1.2-12.2-3.5-16.5-4.9-4.2-1.5-12.6-4.7-18.6-7.3-6-2.6-16.4-7.4-23-10.7-6.6-3.3-15.7-8.5-20.3-11.6-4.5-3-11.9-8.3-16.4-11.8-4.5-3.4-11.2-9.4-14.9-13.2-3.7-3.8-9-9.8-11.8-13.3-2.8-3.4-9-14.3-13.9-24.1-4.8-9.9-9.9-22.1-11.5-27.7-1.5-5.4-3.9-15.5-5.2-22.4-2.3-12-2.4-15.3-2.4-71.2 0-55.9 0.1-59.4 2.5-74.6 1.4-8.7 3.7-20.5 5.1-26.3 1.5-5.7 4.5-15.5 6.7-21.9 2.2-6.3 7.5-18.4 11.7-26.8 4.2-8.5 10.3-18.8 13.5-23 3.2-4.3 9.1-11.2 13.3-15.4 4.1-4.2 12.1-11.3 17.9-15.7 5.7-4.5 13.3-9.7 16.9-11.7 3.7-2 10.6-5.2 15.4-7 4.8-1.8 13.7-4.5 19.7-6 6-1.4 14.2-3.2 18.1-3.8 3.9-0.7 13.8-2 21.9-2.9 8.1-0.9 17-2.3 19.7-3.2 2.7-0.8 14.1-2.6 25.2-3.9 11.2-1.3 34.9-3.8 52.6-5.5 30.2-3 34.9-3.1 70.7-2.8z"/></svg>