<svg version="1.2" xmlns="http://www.w3.org/2000/svg" viewBox="0 0 686 523" width="686" height="523"><style>.a{fill:#efd7d7}</style><path class="a" d="m353.9 0.7c16.9 0.3 30.9 1.1 36.6 2.1 5 0.9 13.8 2.7 19.4 3.9 5.7 1.2 13.2 3.1 16.6 4.2 3.5 1.1 12.5 3.9 20 6.3 7.6 2.4 19.9 6.8 27.5 9.8 7.5 2.9 18.1 7.1 23.4 9.2 5.4 2.1 10.1 3.9 10.6 3.9 0.5 0 3.6 1.3 6.9 2.8 3.3 1.5 12.4 5.3 20.3 8.4 7.9 3.2 22 9.7 31.5 14.6 9.4 4.9 19.9 10.7 23.4 12.9 3.5 2.2 9.9 6.6 14.3 9.8 4.4 3.1 12.3 9.6 17.6 14.4 5.3 4.7 12.8 12.5 16.7 17.2 3.9 4.7 9.8 12.7 13.2 17.7 3.4 5.1 8.6 14.3 11.5 20.6 3 6.3 7.2 16.6 9.4 22.9 2.2 6.3 5 16.3 6.4 22.3 1.3 6 3.2 15.9 4.1 22 1.3 8.3 1.8 20.8 1.8 48.6 0 27.5-0.5 41-1.8 50.7-1 7.2-2.8 18.3-4.1 24.6-1.3 6.3-3.9 15.5-5.7 20.6-1.9 5-5.5 13-8 17.7-2.6 4.7-7.6 12.7-11.1 17.7-3.6 5-13.2 15.8-21.4 24-8.2 8.3-18.7 18.1-23.4 21.9-4.8 3.8-14 10.8-20.6 15.6-6.6 4.7-18.2 12.4-25.8 17-7.5 4.6-20.4 11.5-28.6 15.4-8.2 3.9-18.5 8.5-22.9 10.2-4.4 1.7-10.8 3.9-14.3 4.8-3.4 1-11.1 3-17.1 4.7-10.4 2.8-12.6 2.9-46.4 3.4-23.4 0.3-37.7 0-42.3-0.8-3.8-0.7-9.7-2.1-13.1-3.1-3.5-0.9-10.2-3.1-14.9-4.7-4.7-1.6-13-4.7-18.3-6.9-5.4-2.1-12.6-4.9-16-6.1-3.5-1.3-11.2-3.6-28.1-8.4l-62.3-0.1c-55.3 0-63.3-0.2-70.9-2-4.8-1.1-13-3.3-18.3-5-5.4-1.6-13.6-4.5-18.3-6.3-4.8-1.9-16.3-7.3-25.8-12.1-9.4-4.7-20.7-10.9-25.1-13.7-4.5-2.9-10.6-6.9-13.8-9-3.1-2-11-9.1-17.4-15.8-6.5-6.7-14.9-16.9-18.8-22.7-3.9-5.8-9-14.7-11.3-19.7-2.3-5.1-5.5-13-7.2-17.8-1.6-4.7-3.9-12.7-5.2-17.7-1.3-5-3.1-14-4.1-20-1.4-8.8-1.7-22.1-1.8-68.7 0-45.7 0.4-60.6 1.8-71.5 1-7.5 3-19.3 4.5-26.3 1.5-6.9 4.8-18.7 7.2-26.3 2.5-7.5 7.6-19.9 11.3-27.4 3.8-7.6 9.6-17.9 13-22.9 3.4-5 8.7-12.3 11.8-16 3.1-3.8 8-9.1 10.9-11.8 2.9-2.8 7.9-6.9 11-9.3 3.2-2.3 9.6-6.6 14.3-9.4 4.8-2.9 12.2-6.7 16.6-8.4 4.4-1.7 9.1-3.6 10.3-4.1 1.3-0.5 5.7-1.9 9.8-3.2 4-1.3 11.2-3.1 16-4.1 4.7-0.9 14-2.4 20.6-3.4 6.6-0.9 15.3-2 19.4-2.4 4.1-0.4 10-1.4 13.2-2.3 3.1-0.8 10.3-2.1 16-2.8 5.6-0.6 21.6-2.2 35.4-3.5 13.9-1.2 30.1-2.8 36.1-3.5 6-0.6 18.8-1.6 28.6-2.2 9.7-0.5 30.1-0.7 45.2-0.5z"/></svg>